<?xml version="1.0" encoding="UTF-8"?>
<svg id="Ebene_1" xmlns="http://www.w3.org/2000/svg" version="1.1" viewBox="0 0 500 500">
  <!-- Generator: Adobe Illustrator 29.2.1, SVG Export Plug-In . SVG Version: 2.1.0 Build 116)  -->
  <defs>
    <style>
      .st0 {
        fill: #e6007e;
      }

      .st1 {
        fill: #009fe3;
      }
    </style>
  </defs>
  <g>
    <rect class="st1" x="-.2" y="71.7" width="72" height="356"/>
    <polygon class="st1" points="319.8 427.7 -.2 427.7 -.2 499.7 349.8 499.7 319.8 427.7"/>
    <polygon class="st1" points="230.5 213.7 71.8 213.7 71.8 285.7 260.6 285.7 230.5 213.7"/>
    <polygon class="st1" points="141.3 -.3 -.2 -.3 -.2 71.7 171.3 71.7 141.3 -.3"/>
  </g>
  <g>
    <rect class="st0" x="427.8" y="71.7" width="72" height="428" transform="translate(927.7 571.4) rotate(180)"/>
    <polygon class="st0" points="308.6 213.7 338.6 285.7 427.8 285.7 427.8 213.7 308.6 213.7"/>
    <polygon class="st0" points="219.3 -.3 249.3 71.7 499.8 71.7 499.8 -.3 219.3 -.3"/>
  </g>
</svg>